<svg viewBox="0 0 640 540" xmlns="http://www.w3.org/2000/svg">
  <defs>
    <linearGradient id="chrome" x1="0" y1="0" x2="0" y2="1">
      <stop offset="0%" stop-color="#eaf2ff"/>
      <stop offset="28%" stop-color="#7fa8e0"/>
      <stop offset="52%" stop-color="#1c3f7a"/>
      <stop offset="72%" stop-color="#7fa8e0"/>
      <stop offset="100%" stop-color="#16305e"/>
    </linearGradient>
    <linearGradient id="water" x1="0" y1="0" x2="1" y2="1">
      <stop offset="0%" stop-color="#6f97c8"/>
      <stop offset="55%" stop-color="#1c3f7a"/>
      <stop offset="100%" stop-color="#20456f"/>
    </linearGradient>
  </defs>

  <text x="320" y="88" font-family="Arial, Helvetica, sans-serif" font-size="76" font-weight="900"
        text-anchor="middle" fill="url(#chrome)" stroke="#0c1e3d" stroke-width="2.5"
        letter-spacing="2" transform="skewX(-6)">COMPLETE</text>

  <text x="320" y="146" font-family="Arial, Helvetica, sans-serif" font-size="44" font-weight="900"
        text-anchor="middle" fill="url(#chrome)" stroke="#0c1e3d" stroke-width="2"
        letter-spacing="1" transform="skewX(-6)">POOL SERVICE INC.</text>

  <!-- pool illustration -->
  <polygon points="120,270 460,215 585,300 245,395" fill="#dde2e7" stroke="#2a2a2a" stroke-width="3"/>
  <polygon points="150,278 438,232 550,301 262,378" fill="url(#water)" stroke="#12305f" stroke-width="2"/>
  <polygon points="455,216 500,199 524,218 480,236" fill="#e9e9e9" stroke="#2a2a2a" stroke-width="2"/>

  <!-- ladder -->
  <path d="M228,305 C222,283 233,266 250,266" stroke="#9aa2ab" stroke-width="7" fill="none" stroke-linecap="round"/>
  <path d="M272,316 C266,294 277,277 294,277" stroke="#9aa2ab" stroke-width="7" fill="none" stroke-linecap="round"/>
  <line x1="226" y1="292" x2="274" y2="301" stroke="#9aa2ab" stroke-width="6" stroke-linecap="round"/>
  <line x1="231" y1="279" x2="279" y2="288" stroke="#9aa2ab" stroke-width="6" stroke-linecap="round"/>

  <text x="320" y="470" font-family="Arial, Helvetica, sans-serif" font-size="56" font-weight="900"
        text-anchor="middle" fill="#1c3f7a" stroke="#0c1e3d" stroke-width="1.5"
        letter-spacing="1">516-216-6955</text>
</svg>
